<svg width="60" height="60" viewBox="0 0 60 60" fill="none" xmlns="http://www.w3.org/2000/svg">
<path d="M22.5 42.5H37.5M22.5 35H37.5M32.5009 7.50218C32.2621 7.5 31.9934 7.5 31.6868 7.5H20.5005C17.7002 7.5 16.2991 7.5 15.2295 8.04497C14.2887 8.52434 13.5243 9.28868 13.045 10.2295C12.5 11.2991 12.5 12.7002 12.5 15.5005V44.5005C12.5 47.3007 12.5 48.7002 13.045 49.7697C13.5243 50.7105 14.2887 51.4762 15.2295 51.9556C16.298 52.5 17.6975 52.5 20.4923 52.5L39.5077 52.5C42.3025 52.5 43.7 52.5 44.7685 51.9556C45.7093 51.4762 46.4762 50.7105 46.9556 49.7697C47.5 48.7012 47.5 47.3037 47.5 44.5089V23.3142C47.5 23.0075 47.4997 22.7388 47.4976 22.5M32.5009 7.50218C33.2146 7.50869 33.6643 7.53517 34.0954 7.63868C34.6056 7.76116 35.0946 7.96316 35.542 8.2373C36.0464 8.54642 36.4795 8.97953 37.3438 9.84375L45.1575 17.6575C46.0222 18.5222 46.4522 18.9534 46.7614 19.458C47.0355 19.9053 47.2384 20.3931 47.3608 20.9033C47.4643 21.3345 47.491 21.7864 47.4976 22.5M32.5009 7.50218L32.5 14.5005C32.5 17.3008 32.5 18.7004 33.045 19.7699C33.5243 20.7107 34.2887 21.4762 35.2295 21.9556C36.298 22.5 37.6975 22.5 40.4923 22.5H47.4976" stroke="#EB6B06" stroke-width="3" stroke-linecap="round" stroke-linejoin="round"/>
</svg>
