<svg width="60" height="60" viewBox="0 0 60 60" fill="none" xmlns="http://www.w3.org/2000/svg">
<path d="M11.8698 19.1128L11.0417 28.2214C10.9191 29.5704 10.8572 30.2506 10.9695 30.8962C11.0698 31.4731 11.2701 32.0283 11.5624 32.5357C11.8907 33.1057 12.3761 33.591 13.3412 34.5561L26.2799 47.4949C28.2475 49.4625 29.2318 50.4468 30.3699 50.8166C31.3741 51.1429 32.4576 51.1436 33.4618 50.8173C34.6035 50.4464 35.5955 49.4555 37.5756 47.4754L47.4751 37.5759C49.4552 35.5959 50.4436 34.6062 50.8145 33.4646C51.1408 32.4604 51.1389 31.3781 50.8126 30.3739C50.4416 29.2323 49.4547 28.2429 47.4746 26.2628L34.5678 13.356C33.5939 12.3821 33.1067 11.895 32.5341 11.5652C32.0267 11.2729 31.4716 11.0718 30.8947 10.9714C30.2436 10.8582 29.5574 10.9205 28.1858 11.0452L19.1112 11.8701C16.7493 12.0849 15.5676 12.1927 14.6435 12.7066C13.8286 13.1597 13.1569 13.8314 12.7038 14.6462C12.1925 15.5658 12.0858 16.7391 11.8732 19.0775L11.8698 19.1128Z" stroke="#EB6B06" stroke-width="3" stroke-linecap="round" stroke-linejoin="round"/>
<path d="M24.2815 24.2827C25.2578 23.3064 25.2578 21.7234 24.2815 20.7471C23.3052 19.7708 21.7211 19.7708 20.7448 20.7471C19.7685 21.7234 19.7676 23.306 20.7439 24.2823C21.7202 25.2586 23.3052 25.259 24.2815 24.2827Z" stroke="#EB6B06" stroke-width="3" stroke-linecap="round" stroke-linejoin="round"/>
</svg>
