<svg width="60" height="60" viewBox="0 0 60 60" fill="none" xmlns="http://www.w3.org/2000/svg">
<path d="M22.5 27.5H37.5M17.8089 46.7529L13.999 49.8009C11.9186 51.4652 10.8779 52.2977 10.0024 52.2987C9.24109 52.2995 8.52111 51.9533 8.04614 51.3583C7.5 50.6741 7.5 49.3422 7.5 46.678V18.0005C7.5 15.2002 7.5 13.7991 8.04497 12.7295C8.52433 11.7887 9.28868 11.0243 10.2295 10.545C11.2991 10 12.7002 10 15.5005 10H44.5005C47.3008 10 48.6989 10 49.7685 10.545C50.7093 11.0243 51.4762 11.7887 51.9556 12.7295C52.5 13.798 52.5 15.1975 52.5 17.9923V37.0089C52.5 39.8037 52.5 41.2012 51.9556 42.2697C51.4762 43.2105 50.7109 43.9762 49.7701 44.4556C48.7015 45 47.3025 45 44.5077 45H22.8052C21.7651 45 21.2469 45 20.7495 45.1021C20.3082 45.1927 19.8804 45.3419 19.4792 45.5469C19.032 45.7753 18.6312 46.096 17.8369 46.7314L17.8089 46.7529Z" stroke="#EB6B06" stroke-width="3" stroke-linecap="round" stroke-linejoin="round"/>
</svg>
