<svg width="61" height="60" viewBox="0 0 61 60" fill="none" xmlns="http://www.w3.org/2000/svg">
<path d="M20.3333 20H19.6106C17.2029 20 15.9996 20 15.0232 20.438C14.1625 20.8241 13.4293 21.446 12.9069 22.2314C12.3144 23.1225 12.1151 24.3096 11.7193 26.6846L9.38599 40.6846L9.38505 40.6898C8.85146 43.8913 8.58451 45.493 9.04813 46.7412C9.45518 47.8371 10.2347 48.7555 11.2488 49.3372C12.4044 50 14.0277 50 17.2766 50H43.3892C46.6382 50 48.2641 50 49.4197 49.3372C50.4338 48.7555 51.2115 47.8371 51.6185 46.7412C52.082 45.4935 51.8151 43.8926 51.282 40.6935L51.2799 40.6846L48.9465 26.6846C48.5507 24.3097 48.3526 23.1225 47.76 22.2314C47.2377 21.446 46.5039 20.8241 45.6432 20.438C44.6668 20 43.4642 20 41.0566 20H40.3333M20.3333 20H40.3333M20.3333 20C20.3333 14.4772 24.8104 10 30.3333 10C35.8561 10 40.3333 14.4772 40.3333 20" stroke="#EB6B06" stroke-width="3" stroke-linecap="round" stroke-linejoin="round"/>
</svg>
