<svg width="61" height="60" viewBox="0 0 61 60" fill="none" xmlns="http://www.w3.org/2000/svg">
<path d="M30.6666 40V25M30.6666 25L23.1666 30M30.6666 25L38.1666 30M8.16663 15V42C8.16663 44.8003 8.16663 46.1994 8.71159 47.269C9.19096 48.2098 9.95531 48.9762 10.8961 49.4556C11.9646 50 13.3641 50 16.1589 50H45.1743C47.9691 50 49.3666 50 50.4351 49.4556C51.3759 48.9762 52.1428 48.2103 52.6222 47.2695C53.1672 46.1999 53.1672 44.7998 53.1672 41.9995L53.1672 22.9994C53.1672 20.1992 53.1672 18.7991 52.6222 17.7295C52.1428 16.7887 51.3764 16.0243 50.4356 15.545C49.366 15 47.9669 15 45.1666 15H30.6666M8.16663 15H30.6666M8.16663 15C8.16663 12.2386 10.4052 10 13.1666 10H22.3529C23.5759 10 24.1888 10 24.7642 10.1382C25.2744 10.2606 25.7613 10.4632 26.2086 10.7373C26.713 11.0464 27.1462 11.4795 28.0104 12.3438L30.6666 15" stroke="#EB6B06" stroke-width="3" stroke-linecap="round" stroke-linejoin="round"/>
</svg>
